<mxfile host="app.diagrams.net" modified="2024-04-02T01:52:46.289Z" agent="Mozilla/5.0 (Windows NT 10.0; Win64; x64) AppleWebKit/537.36 (KHTML, like Gecko) Chrome/123.0.0.0 Safari/537.36" etag="4cIHqE-eSMGdnpVk31Gz" version="24.2.1" type="device">
  <diagram name="페이지-1" id="yOGc47Db6DorSXFMng4b">
    <mxGraphModel dx="4924" dy="2229" grid="1" gridSize="10" guides="1" tooltips="1" connect="1" arrows="1" fold="1" page="1" pageScale="1" pageWidth="827" pageHeight="1169" math="0" shadow="0">
      <root>
        <mxCell id="0" />
        <mxCell id="1" parent="0" />
        <mxCell id="PkiAVml4FqlAzw377sm1-1" value="&lt;font style=&quot;font-size: 20px;&quot;&gt;traffic&lt;/font&gt;&lt;div&gt;&lt;font style=&quot;font-size: 14px;&quot;&gt;(교통편)&lt;/font&gt;&lt;/div&gt;" style="rounded=0;whiteSpace=wrap;html=1;" parent="1" vertex="1">
          <mxGeometry x="200" y="250" width="120" height="60" as="geometry" />
        </mxCell>
        <mxCell id="PkiAVml4FqlAzw377sm1-2" value="ttype&lt;div&gt;(종류)&lt;/div&gt;" style="ellipse;whiteSpace=wrap;html=1;" parent="1" vertex="1">
          <mxGeometry x="29" y="342" width="90" height="50" as="geometry" />
        </mxCell>
        <mxCell id="PkiAVml4FqlAzw377sm1-3" value="&lt;div&gt;no&lt;/div&gt;&lt;div&gt;(번호)&lt;/div&gt;" style="ellipse;whiteSpace=wrap;html=1;" parent="1" vertex="1">
          <mxGeometry x="149" y="342" width="90" height="50" as="geometry" />
        </mxCell>
        <mxCell id="PkiAVml4FqlAzw377sm1-4" value="route&lt;div&gt;(노선도)&lt;/div&gt;" style="ellipse;whiteSpace=wrap;html=1;" parent="1" vertex="1">
          <mxGeometry x="269" y="342" width="90" height="50" as="geometry" />
        </mxCell>
        <mxCell id="PkiAVml4FqlAzw377sm1-5" value="coment&lt;div&gt;(설명)&lt;/div&gt;" style="ellipse;whiteSpace=wrap;html=1;" parent="1" vertex="1">
          <mxGeometry x="390" y="342" width="90" height="50" as="geometry" />
        </mxCell>
        <mxCell id="PkiAVml4FqlAzw377sm1-6" value="" style="endArrow=classic;html=1;rounded=0;exitX=0.5;exitY=1;exitDx=0;exitDy=0;entryX=0.5;entryY=0;entryDx=0;entryDy=0;" parent="1" source="PkiAVml4FqlAzw377sm1-1" target="PkiAVml4FqlAzw377sm1-2" edge="1">
          <mxGeometry width="50" height="50" relative="1" as="geometry">
            <mxPoint x="270" y="430" as="sourcePoint" />
            <mxPoint x="320" y="380" as="targetPoint" />
          </mxGeometry>
        </mxCell>
        <mxCell id="PkiAVml4FqlAzw377sm1-7" value="" style="endArrow=classic;html=1;rounded=0;entryX=0.5;entryY=0;entryDx=0;entryDy=0;" parent="1" target="PkiAVml4FqlAzw377sm1-3" edge="1">
          <mxGeometry width="50" height="50" relative="1" as="geometry">
            <mxPoint x="260" y="310" as="sourcePoint" />
            <mxPoint x="320" y="380" as="targetPoint" />
          </mxGeometry>
        </mxCell>
        <mxCell id="PkiAVml4FqlAzw377sm1-8" value="" style="endArrow=classic;html=1;rounded=0;entryX=0.5;entryY=0;entryDx=0;entryDy=0;" parent="1" target="PkiAVml4FqlAzw377sm1-4" edge="1">
          <mxGeometry width="50" height="50" relative="1" as="geometry">
            <mxPoint x="260" y="310" as="sourcePoint" />
            <mxPoint x="320" y="380" as="targetPoint" />
          </mxGeometry>
        </mxCell>
        <mxCell id="PkiAVml4FqlAzw377sm1-9" value="" style="endArrow=classic;html=1;rounded=0;exitX=0.5;exitY=1;exitDx=0;exitDy=0;entryX=0.5;entryY=0;entryDx=0;entryDy=0;" parent="1" source="PkiAVml4FqlAzw377sm1-1" target="PkiAVml4FqlAzw377sm1-5" edge="1">
          <mxGeometry width="50" height="50" relative="1" as="geometry">
            <mxPoint x="270" y="430" as="sourcePoint" />
            <mxPoint x="320" y="380" as="targetPoint" />
          </mxGeometry>
        </mxCell>
        <mxCell id="PkiAVml4FqlAzw377sm1-10" value="&lt;div&gt;&lt;font style=&quot;font-size: 20px;&quot;&gt;guide&lt;/font&gt;&lt;/div&gt;&lt;font style=&quot;font-size: 15px;&quot;&gt;(안내사항)&lt;/font&gt;" style="rounded=0;whiteSpace=wrap;html=1;" parent="1" vertex="1">
          <mxGeometry x="294" y="440" width="120" height="60" as="geometry" />
        </mxCell>
        <mxCell id="PkiAVml4FqlAzw377sm1-12" value="pcode&lt;div&gt;(장소코드)&lt;/div&gt;" style="ellipse;whiteSpace=wrap;html=1;" parent="1" vertex="1">
          <mxGeometry x="-111" y="540" width="90" height="45" as="geometry" />
        </mxCell>
        <mxCell id="PkiAVml4FqlAzw377sm1-13" value="pname&lt;div&gt;(장소이름)&lt;/div&gt;" style="ellipse;whiteSpace=wrap;html=1;" parent="1" vertex="1">
          <mxGeometry x="9" y="540" width="90" height="45" as="geometry" />
        </mxCell>
        <mxCell id="PkiAVml4FqlAzw377sm1-14" value="ptype&lt;div&gt;(장소종류)&lt;/div&gt;" style="ellipse;whiteSpace=wrap;html=1;" parent="1" vertex="1">
          <mxGeometry x="129" y="540" width="90" height="45" as="geometry" />
        </mxCell>
        <mxCell id="PkiAVml4FqlAzw377sm1-15" value="paddr&lt;div&gt;(장소주소)&lt;/div&gt;" style="ellipse;whiteSpace=wrap;html=1;" parent="1" vertex="1">
          <mxGeometry x="249" y="540" width="90" height="45" as="geometry" />
        </mxCell>
        <mxCell id="PkiAVml4FqlAzw377sm1-16" value="ptel&lt;div&gt;(장소연락처)&lt;/div&gt;" style="ellipse;whiteSpace=wrap;html=1;" parent="1" vertex="1">
          <mxGeometry x="369" y="540" width="90" height="45" as="geometry" />
        </mxCell>
        <mxCell id="PkiAVml4FqlAzw377sm1-17" value="pgps&lt;div&gt;(장소GPS값)&lt;/div&gt;" style="ellipse;whiteSpace=wrap;html=1;" parent="1" vertex="1">
          <mxGeometry x="489" y="540" width="90" height="45" as="geometry" />
        </mxCell>
        <mxCell id="PkiAVml4FqlAzw377sm1-18" value="pcoment&lt;div&gt;(장소설명)&lt;/div&gt;" style="ellipse;whiteSpace=wrap;html=1;" parent="1" vertex="1">
          <mxGeometry x="609" y="540" width="90" height="45" as="geometry" />
        </mxCell>
        <mxCell id="PkiAVml4FqlAzw377sm1-19" value="premark&lt;div&gt;(참고사항)&lt;/div&gt;" style="ellipse;whiteSpace=wrap;html=1;" parent="1" vertex="1">
          <mxGeometry x="729" y="540" width="90" height="45" as="geometry" />
        </mxCell>
        <mxCell id="PkiAVml4FqlAzw377sm1-20" value="" style="endArrow=classic;html=1;rounded=0;exitX=0.472;exitY=0.993;exitDx=0;exitDy=0;exitPerimeter=0;entryX=0.5;entryY=0;entryDx=0;entryDy=0;" parent="1" source="PkiAVml4FqlAzw377sm1-10" target="PkiAVml4FqlAzw377sm1-15" edge="1">
          <mxGeometry width="50" height="50" relative="1" as="geometry">
            <mxPoint x="360" y="640" as="sourcePoint" />
            <mxPoint x="410" y="590" as="targetPoint" />
          </mxGeometry>
        </mxCell>
        <mxCell id="PkiAVml4FqlAzw377sm1-21" value="" style="endArrow=classic;html=1;rounded=0;exitX=0.5;exitY=1;exitDx=0;exitDy=0;entryX=0.5;entryY=0;entryDx=0;entryDy=0;" parent="1" source="PkiAVml4FqlAzw377sm1-10" target="PkiAVml4FqlAzw377sm1-16" edge="1">
          <mxGeometry width="50" height="50" relative="1" as="geometry">
            <mxPoint x="360" y="640" as="sourcePoint" />
            <mxPoint x="410" y="590" as="targetPoint" />
          </mxGeometry>
        </mxCell>
        <mxCell id="PkiAVml4FqlAzw377sm1-22" value="" style="endArrow=classic;html=1;rounded=0;exitX=0.5;exitY=1;exitDx=0;exitDy=0;entryX=0.5;entryY=0;entryDx=0;entryDy=0;" parent="1" source="PkiAVml4FqlAzw377sm1-10" target="PkiAVml4FqlAzw377sm1-17" edge="1">
          <mxGeometry width="50" height="50" relative="1" as="geometry">
            <mxPoint x="360" y="640" as="sourcePoint" />
            <mxPoint x="410" y="590" as="targetPoint" />
          </mxGeometry>
        </mxCell>
        <mxCell id="PkiAVml4FqlAzw377sm1-23" value="" style="endArrow=classic;html=1;rounded=0;exitX=0.5;exitY=1;exitDx=0;exitDy=0;entryX=0.5;entryY=0;entryDx=0;entryDy=0;" parent="1" source="PkiAVml4FqlAzw377sm1-10" target="PkiAVml4FqlAzw377sm1-18" edge="1">
          <mxGeometry width="50" height="50" relative="1" as="geometry">
            <mxPoint x="360" y="640" as="sourcePoint" />
            <mxPoint x="410" y="590" as="targetPoint" />
          </mxGeometry>
        </mxCell>
        <mxCell id="PkiAVml4FqlAzw377sm1-24" value="" style="endArrow=classic;html=1;rounded=0;exitX=0.5;exitY=1;exitDx=0;exitDy=0;entryX=0.5;entryY=0;entryDx=0;entryDy=0;" parent="1" source="PkiAVml4FqlAzw377sm1-10" target="PkiAVml4FqlAzw377sm1-19" edge="1">
          <mxGeometry width="50" height="50" relative="1" as="geometry">
            <mxPoint x="520" y="600" as="sourcePoint" />
            <mxPoint x="570" y="550" as="targetPoint" />
          </mxGeometry>
        </mxCell>
        <mxCell id="PkiAVml4FqlAzw377sm1-25" value="" style="endArrow=classic;html=1;rounded=0;exitX=0.5;exitY=1;exitDx=0;exitDy=0;entryX=0.5;entryY=0;entryDx=0;entryDy=0;" parent="1" source="PkiAVml4FqlAzw377sm1-10" target="PkiAVml4FqlAzw377sm1-14" edge="1">
          <mxGeometry width="50" height="50" relative="1" as="geometry">
            <mxPoint x="150" y="570" as="sourcePoint" />
            <mxPoint x="200" y="520" as="targetPoint" />
          </mxGeometry>
        </mxCell>
        <mxCell id="PkiAVml4FqlAzw377sm1-26" value="" style="endArrow=classic;html=1;rounded=0;entryX=0.5;entryY=0;entryDx=0;entryDy=0;" parent="1" target="PkiAVml4FqlAzw377sm1-13" edge="1">
          <mxGeometry width="50" height="50" relative="1" as="geometry">
            <mxPoint x="360" y="500" as="sourcePoint" />
            <mxPoint x="200" y="520" as="targetPoint" />
          </mxGeometry>
        </mxCell>
        <mxCell id="PkiAVml4FqlAzw377sm1-27" value="" style="endArrow=classic;html=1;rounded=0;entryX=0.542;entryY=-0.027;entryDx=0;entryDy=0;entryPerimeter=0;exitX=0.5;exitY=1;exitDx=0;exitDy=0;" parent="1" source="PkiAVml4FqlAzw377sm1-10" target="PkiAVml4FqlAzw377sm1-12" edge="1">
          <mxGeometry width="50" height="50" relative="1" as="geometry">
            <mxPoint x="150" y="570" as="sourcePoint" />
            <mxPoint x="200" y="520" as="targetPoint" />
          </mxGeometry>
        </mxCell>
        <mxCell id="PkiAVml4FqlAzw377sm1-28" value="&lt;font style=&quot;font-size: 20px;&quot;&gt;notice&lt;/font&gt;&lt;div&gt;&lt;font style=&quot;font-size: 15px;&quot;&gt;(공지사항)&lt;/font&gt;&lt;/div&gt;" style="rounded=0;whiteSpace=wrap;html=1;" parent="1" vertex="1">
          <mxGeometry x="294" y="660" width="120" height="60" as="geometry" />
        </mxCell>
        <mxCell id="PkiAVml4FqlAzw377sm1-29" value="&lt;div&gt;no&lt;/div&gt;(글번호)" style="ellipse;whiteSpace=wrap;html=1;" parent="1" vertex="1">
          <mxGeometry x="6" y="780" width="120" height="50" as="geometry" />
        </mxCell>
        <mxCell id="PkiAVml4FqlAzw377sm1-30" value="&lt;div&gt;title&lt;/div&gt;(글제목)" style="ellipse;whiteSpace=wrap;html=1;" parent="1" vertex="1">
          <mxGeometry x="152" y="780" width="120" height="50" as="geometry" />
        </mxCell>
        <mxCell id="PkiAVml4FqlAzw377sm1-31" value="&lt;div&gt;content&lt;/div&gt;(글내용)" style="ellipse;whiteSpace=wrap;html=1;" parent="1" vertex="1">
          <mxGeometry x="300" y="780" width="120" height="50" as="geometry" />
        </mxCell>
        <mxCell id="PkiAVml4FqlAzw377sm1-32" value="&lt;div&gt;resdate&lt;/div&gt;(작성일시)" style="ellipse;whiteSpace=wrap;html=1;" parent="1" vertex="1">
          <mxGeometry x="442" y="780" width="120" height="50" as="geometry" />
        </mxCell>
        <mxCell id="PkiAVml4FqlAzw377sm1-33" value="&lt;div&gt;visited&lt;/div&gt;(읽은횟수)" style="ellipse;whiteSpace=wrap;html=1;" parent="1" vertex="1">
          <mxGeometry x="582" y="780" width="120" height="50" as="geometry" />
        </mxCell>
        <mxCell id="PkiAVml4FqlAzw377sm1-34" value="" style="endArrow=classic;html=1;rounded=0;exitX=0.5;exitY=1;exitDx=0;exitDy=0;entryX=0.5;entryY=0;entryDx=0;entryDy=0;" parent="1" source="PkiAVml4FqlAzw377sm1-28" target="PkiAVml4FqlAzw377sm1-29" edge="1">
          <mxGeometry width="50" height="50" relative="1" as="geometry">
            <mxPoint x="360" y="810" as="sourcePoint" />
            <mxPoint x="410" y="760" as="targetPoint" />
          </mxGeometry>
        </mxCell>
        <mxCell id="PkiAVml4FqlAzw377sm1-35" value="" style="endArrow=classic;html=1;rounded=0;exitX=0.5;exitY=1;exitDx=0;exitDy=0;entryX=0.5;entryY=0;entryDx=0;entryDy=0;" parent="1" source="PkiAVml4FqlAzw377sm1-28" target="PkiAVml4FqlAzw377sm1-30" edge="1">
          <mxGeometry width="50" height="50" relative="1" as="geometry">
            <mxPoint x="360" y="810" as="sourcePoint" />
            <mxPoint x="410" y="760" as="targetPoint" />
          </mxGeometry>
        </mxCell>
        <mxCell id="PkiAVml4FqlAzw377sm1-36" value="" style="endArrow=classic;html=1;rounded=0;entryX=0.5;entryY=0;entryDx=0;entryDy=0;" parent="1" target="PkiAVml4FqlAzw377sm1-31" edge="1">
          <mxGeometry width="50" height="50" relative="1" as="geometry">
            <mxPoint x="350" y="720" as="sourcePoint" />
            <mxPoint x="410" y="760" as="targetPoint" />
          </mxGeometry>
        </mxCell>
        <mxCell id="PkiAVml4FqlAzw377sm1-37" value="" style="endArrow=classic;html=1;rounded=0;entryX=0.5;entryY=0;entryDx=0;entryDy=0;" parent="1" target="PkiAVml4FqlAzw377sm1-32" edge="1">
          <mxGeometry width="50" height="50" relative="1" as="geometry">
            <mxPoint x="350" y="720" as="sourcePoint" />
            <mxPoint x="410" y="760" as="targetPoint" />
          </mxGeometry>
        </mxCell>
        <mxCell id="PkiAVml4FqlAzw377sm1-38" value="" style="endArrow=classic;html=1;rounded=0;entryX=0.5;entryY=0;entryDx=0;entryDy=0;" parent="1" target="PkiAVml4FqlAzw377sm1-33" edge="1">
          <mxGeometry width="50" height="50" relative="1" as="geometry">
            <mxPoint x="350" y="720" as="sourcePoint" />
            <mxPoint x="410" y="760" as="targetPoint" />
          </mxGeometry>
        </mxCell>
        <mxCell id="PkiAVml4FqlAzw377sm1-39" value="&lt;font style=&quot;font-size: 22px;&quot;&gt;qna&lt;/font&gt;&lt;div&gt;&lt;font style=&quot;font-size: 15px;&quot;&gt;(묻고 답하기)&lt;/font&gt;&lt;/div&gt;" style="rounded=0;whiteSpace=wrap;html=1;" parent="1" vertex="1">
          <mxGeometry x="293" y="890" width="120" height="60" as="geometry" />
        </mxCell>
        <mxCell id="PkiAVml4FqlAzw377sm1-40" value="&lt;div&gt;no&lt;/div&gt;(글번호)" style="ellipse;whiteSpace=wrap;html=1;" parent="1" vertex="1">
          <mxGeometry x="-263" y="1000" width="120" height="50" as="geometry" />
        </mxCell>
        <mxCell id="PkiAVml4FqlAzw377sm1-41" value="&lt;div&gt;title&lt;/div&gt;(글제목)" style="ellipse;whiteSpace=wrap;html=1;" parent="1" vertex="1">
          <mxGeometry x="173" y="1000" width="120" height="50" as="geometry" />
        </mxCell>
        <mxCell id="PkiAVml4FqlAzw377sm1-42" value="&lt;div&gt;plevel&lt;/div&gt;(글종류)" style="ellipse;whiteSpace=wrap;html=1;" parent="1" vertex="1">
          <mxGeometry x="-117" y="1000" width="120" height="50" as="geometry" />
        </mxCell>
        <mxCell id="PkiAVml4FqlAzw377sm1-43" value="&lt;div&gt;parno&lt;/div&gt;(부모글번호)" style="ellipse;whiteSpace=wrap;html=1;" parent="1" vertex="1">
          <mxGeometry x="28" y="1000" width="120" height="50" as="geometry" />
        </mxCell>
        <mxCell id="PkiAVml4FqlAzw377sm1-44" value="&lt;div&gt;content&lt;/div&gt;(글내용)" style="ellipse;whiteSpace=wrap;html=1;" parent="1" vertex="1">
          <mxGeometry x="321" y="1000" width="120" height="50" as="geometry" />
        </mxCell>
        <mxCell id="PkiAVml4FqlAzw377sm1-45" value="&lt;div&gt;resdate&lt;/div&gt;(작성일시)" style="ellipse;whiteSpace=wrap;html=1;" parent="1" vertex="1">
          <mxGeometry x="471" y="1000" width="120" height="50" as="geometry" />
        </mxCell>
        <mxCell id="PkiAVml4FqlAzw377sm1-46" value="&lt;div&gt;visited&lt;/div&gt;(읽은횟수)" style="ellipse;whiteSpace=wrap;html=1;" parent="1" vertex="1">
          <mxGeometry x="621" y="1000" width="120" height="50" as="geometry" />
        </mxCell>
        <mxCell id="PkiAVml4FqlAzw377sm1-47" value="&lt;div&gt;aid&lt;/div&gt;(작성자)" style="ellipse;whiteSpace=wrap;html=1;" parent="1" vertex="1">
          <mxGeometry x="771" y="1000" width="120" height="50" as="geometry" />
        </mxCell>
        <mxCell id="PkiAVml4FqlAzw377sm1-48" value="&lt;span style=&quot;font-size: 22px;&quot;&gt;data&lt;/span&gt;&lt;br&gt;&lt;div&gt;&lt;font style=&quot;font-size: 15px;&quot;&gt;(자료실)&lt;/font&gt;&lt;/div&gt;" style="rounded=0;whiteSpace=wrap;html=1;" parent="1" vertex="1">
          <mxGeometry x="293" y="1109" width="137" height="60" as="geometry" />
        </mxCell>
        <mxCell id="PkiAVml4FqlAzw377sm1-49" value="&lt;div&gt;no&lt;/div&gt;(글번호)" style="ellipse;whiteSpace=wrap;html=1;" parent="1" vertex="1">
          <mxGeometry x="-105" y="1210" width="120" height="50" as="geometry" />
        </mxCell>
        <mxCell id="PkiAVml4FqlAzw377sm1-50" value="&lt;div&gt;title&lt;/div&gt;(글제목)" style="ellipse;whiteSpace=wrap;html=1;" parent="1" vertex="1">
          <mxGeometry x="41" y="1210" width="120" height="50" as="geometry" />
        </mxCell>
        <mxCell id="PkiAVml4FqlAzw377sm1-51" value="&lt;div&gt;content&lt;/div&gt;(글내용)" style="ellipse;whiteSpace=wrap;html=1;" parent="1" vertex="1">
          <mxGeometry x="189" y="1210" width="120" height="50" as="geometry" />
        </mxCell>
        <mxCell id="PkiAVml4FqlAzw377sm1-52" value="&lt;div&gt;resdate&lt;/div&gt;(작성일시)" style="ellipse;whiteSpace=wrap;html=1;" parent="1" vertex="1">
          <mxGeometry x="450" y="1210" width="120" height="50" as="geometry" />
        </mxCell>
        <mxCell id="PkiAVml4FqlAzw377sm1-53" value="&lt;div&gt;visited&lt;/div&gt;(읽은횟수)" style="ellipse;whiteSpace=wrap;html=1;" parent="1" vertex="1">
          <mxGeometry x="590" y="1210" width="120" height="50" as="geometry" />
        </mxCell>
        <mxCell id="PkiAVml4FqlAzw377sm1-54" value="&lt;div&gt;datefile&lt;/div&gt;(자료파일)" style="ellipse;whiteSpace=wrap;html=1;" parent="1" vertex="1">
          <mxGeometry x="320" y="1210" width="120" height="50" as="geometry" />
        </mxCell>
        <mxCell id="PkiAVml4FqlAzw377sm1-55" value="" style="endArrow=classic;html=1;rounded=0;exitX=0.5;exitY=1;exitDx=0;exitDy=0;entryX=0.5;entryY=0;entryDx=0;entryDy=0;" parent="1" source="PkiAVml4FqlAzw377sm1-39" target="PkiAVml4FqlAzw377sm1-40" edge="1">
          <mxGeometry width="50" height="50" relative="1" as="geometry">
            <mxPoint x="330" y="1100" as="sourcePoint" />
            <mxPoint x="380" y="1050" as="targetPoint" />
          </mxGeometry>
        </mxCell>
        <mxCell id="PkiAVml4FqlAzw377sm1-56" value="" style="endArrow=classic;html=1;rounded=0;entryX=0.5;entryY=0;entryDx=0;entryDy=0;exitX=0.467;exitY=0.993;exitDx=0;exitDy=0;exitPerimeter=0;" parent="1" source="PkiAVml4FqlAzw377sm1-39" target="PkiAVml4FqlAzw377sm1-43" edge="1">
          <mxGeometry width="50" height="50" relative="1" as="geometry">
            <mxPoint x="250" y="1020" as="sourcePoint" />
            <mxPoint x="300" y="970" as="targetPoint" />
          </mxGeometry>
        </mxCell>
        <mxCell id="PkiAVml4FqlAzw377sm1-57" value="" style="endArrow=classic;html=1;rounded=0;exitX=0.5;exitY=1;exitDx=0;exitDy=0;entryX=0.5;entryY=0;entryDx=0;entryDy=0;" parent="1" source="PkiAVml4FqlAzw377sm1-39" target="PkiAVml4FqlAzw377sm1-41" edge="1">
          <mxGeometry width="50" height="50" relative="1" as="geometry">
            <mxPoint x="250" y="1020" as="sourcePoint" />
            <mxPoint x="300" y="970" as="targetPoint" />
          </mxGeometry>
        </mxCell>
        <mxCell id="PkiAVml4FqlAzw377sm1-58" value="" style="endArrow=classic;html=1;rounded=0;exitX=0.5;exitY=1;exitDx=0;exitDy=0;entryX=0.5;entryY=0;entryDx=0;entryDy=0;" parent="1" source="PkiAVml4FqlAzw377sm1-39" target="PkiAVml4FqlAzw377sm1-44" edge="1">
          <mxGeometry width="50" height="50" relative="1" as="geometry">
            <mxPoint x="250" y="1020" as="sourcePoint" />
            <mxPoint x="300" y="970" as="targetPoint" />
          </mxGeometry>
        </mxCell>
        <mxCell id="PkiAVml4FqlAzw377sm1-59" value="" style="endArrow=classic;html=1;rounded=0;exitX=0.5;exitY=1;exitDx=0;exitDy=0;entryX=0.5;entryY=0;entryDx=0;entryDy=0;" parent="1" source="PkiAVml4FqlAzw377sm1-39" target="PkiAVml4FqlAzw377sm1-45" edge="1">
          <mxGeometry width="50" height="50" relative="1" as="geometry">
            <mxPoint x="550" y="1030" as="sourcePoint" />
            <mxPoint x="600" y="980" as="targetPoint" />
          </mxGeometry>
        </mxCell>
        <mxCell id="PkiAVml4FqlAzw377sm1-60" value="" style="endArrow=classic;html=1;rounded=0;entryX=0.5;entryY=0;entryDx=0;entryDy=0;" parent="1" target="PkiAVml4FqlAzw377sm1-46" edge="1">
          <mxGeometry width="50" height="50" relative="1" as="geometry">
            <mxPoint x="350" y="950" as="sourcePoint" />
            <mxPoint x="600" y="980" as="targetPoint" />
          </mxGeometry>
        </mxCell>
        <mxCell id="PkiAVml4FqlAzw377sm1-61" value="" style="endArrow=classic;html=1;rounded=0;exitX=0.5;exitY=1;exitDx=0;exitDy=0;entryX=0.5;entryY=0;entryDx=0;entryDy=0;" parent="1" source="PkiAVml4FqlAzw377sm1-39" target="PkiAVml4FqlAzw377sm1-47" edge="1">
          <mxGeometry width="50" height="50" relative="1" as="geometry">
            <mxPoint x="550" y="1030" as="sourcePoint" />
            <mxPoint x="600" y="980" as="targetPoint" />
          </mxGeometry>
        </mxCell>
        <mxCell id="PkiAVml4FqlAzw377sm1-62" value="" style="endArrow=classic;html=1;rounded=0;exitX=0.5;exitY=1;exitDx=0;exitDy=0;entryX=0.48;entryY=0.008;entryDx=0;entryDy=0;entryPerimeter=0;" parent="1" source="PkiAVml4FqlAzw377sm1-48" target="PkiAVml4FqlAzw377sm1-49" edge="1">
          <mxGeometry width="50" height="50" relative="1" as="geometry">
            <mxPoint x="90" y="1200" as="sourcePoint" />
            <mxPoint x="140" y="1150" as="targetPoint" />
          </mxGeometry>
        </mxCell>
        <mxCell id="PkiAVml4FqlAzw377sm1-63" value="" style="endArrow=classic;html=1;rounded=0;exitX=0.5;exitY=1;exitDx=0;exitDy=0;entryX=0.5;entryY=0;entryDx=0;entryDy=0;" parent="1" source="PkiAVml4FqlAzw377sm1-48" target="PkiAVml4FqlAzw377sm1-50" edge="1">
          <mxGeometry width="50" height="50" relative="1" as="geometry">
            <mxPoint x="90" y="1200" as="sourcePoint" />
            <mxPoint x="140" y="1150" as="targetPoint" />
          </mxGeometry>
        </mxCell>
        <mxCell id="PkiAVml4FqlAzw377sm1-64" value="" style="endArrow=classic;html=1;rounded=0;exitX=0.5;exitY=1;exitDx=0;exitDy=0;entryX=0.5;entryY=0;entryDx=0;entryDy=0;" parent="1" source="PkiAVml4FqlAzw377sm1-48" target="PkiAVml4FqlAzw377sm1-51" edge="1">
          <mxGeometry width="50" height="50" relative="1" as="geometry">
            <mxPoint x="90" y="1200" as="sourcePoint" />
            <mxPoint x="140" y="1150" as="targetPoint" />
          </mxGeometry>
        </mxCell>
        <mxCell id="PkiAVml4FqlAzw377sm1-65" value="" style="endArrow=classic;html=1;rounded=0;exitX=0.5;exitY=1;exitDx=0;exitDy=0;" parent="1" source="PkiAVml4FqlAzw377sm1-48" target="PkiAVml4FqlAzw377sm1-54" edge="1">
          <mxGeometry width="50" height="50" relative="1" as="geometry">
            <mxPoint x="430" y="1200" as="sourcePoint" />
            <mxPoint x="480" y="1150" as="targetPoint" />
          </mxGeometry>
        </mxCell>
        <mxCell id="PkiAVml4FqlAzw377sm1-66" value="" style="endArrow=classic;html=1;rounded=0;entryX=0.5;entryY=0;entryDx=0;entryDy=0;" parent="1" target="PkiAVml4FqlAzw377sm1-52" edge="1">
          <mxGeometry width="50" height="50" relative="1" as="geometry">
            <mxPoint x="360" y="1170" as="sourcePoint" />
            <mxPoint x="480" y="1150" as="targetPoint" />
          </mxGeometry>
        </mxCell>
        <mxCell id="PkiAVml4FqlAzw377sm1-67" value="" style="endArrow=classic;html=1;rounded=0;exitX=0.5;exitY=1;exitDx=0;exitDy=0;entryX=0.5;entryY=0;entryDx=0;entryDy=0;" parent="1" source="PkiAVml4FqlAzw377sm1-48" target="PkiAVml4FqlAzw377sm1-53" edge="1">
          <mxGeometry width="50" height="50" relative="1" as="geometry">
            <mxPoint x="430" y="1200" as="sourcePoint" />
            <mxPoint x="480" y="1150" as="targetPoint" />
          </mxGeometry>
        </mxCell>
        <mxCell id="35FWn0BOx3e-7nPWBhw9-1" value="&lt;div&gt;&lt;font style=&quot;font-size: 20px;&quot;&gt;member&lt;/font&gt;&lt;/div&gt;&lt;font style=&quot;font-size: 15px;&quot;&gt;(회원)&lt;/font&gt;" style="rounded=0;whiteSpace=wrap;html=1;" parent="1" vertex="1">
          <mxGeometry x="269" y="1320" width="200" height="60" as="geometry" />
        </mxCell>
        <mxCell id="35FWn0BOx3e-7nPWBhw9-2" value="&lt;div&gt;id&lt;/div&gt;(회원아이디)" style="ellipse;whiteSpace=wrap;html=1;" parent="1" vertex="1">
          <mxGeometry x="50" y="1429" width="120" height="50" as="geometry" />
        </mxCell>
        <mxCell id="35FWn0BOx3e-7nPWBhw9-3" value="&lt;div&gt;pw&lt;/div&gt;(비밀번호)" style="ellipse;whiteSpace=wrap;html=1;" parent="1" vertex="1">
          <mxGeometry x="180" y="1429" width="120" height="50" as="geometry" />
        </mxCell>
        <mxCell id="35FWn0BOx3e-7nPWBhw9-4" value="&lt;div&gt;name&lt;/div&gt;(이름)" style="ellipse;whiteSpace=wrap;html=1;" parent="1" vertex="1">
          <mxGeometry x="310" y="1429" width="120" height="50" as="geometry" />
        </mxCell>
        <mxCell id="35FWn0BOx3e-7nPWBhw9-5" value="&lt;div&gt;email&lt;/div&gt;(이메일)" style="ellipse;whiteSpace=wrap;html=1;" parent="1" vertex="1">
          <mxGeometry x="440" y="1429" width="120" height="50" as="geometry" />
        </mxCell>
        <mxCell id="35FWn0BOx3e-7nPWBhw9-6" value="&lt;div&gt;tel&lt;/div&gt;(연락처)" style="ellipse;whiteSpace=wrap;html=1;" parent="1" vertex="1">
          <mxGeometry x="570" y="1429" width="120" height="50" as="geometry" />
        </mxCell>
        <mxCell id="35FWn0BOx3e-7nPWBhw9-7" value="" style="endArrow=classic;html=1;rounded=0;exitX=0.5;exitY=1;exitDx=0;exitDy=0;entryX=0.5;entryY=0;entryDx=0;entryDy=0;" parent="1" source="35FWn0BOx3e-7nPWBhw9-1" target="35FWn0BOx3e-7nPWBhw9-2" edge="1">
          <mxGeometry width="50" height="50" relative="1" as="geometry">
            <mxPoint x="350" y="1440" as="sourcePoint" />
            <mxPoint x="400" y="1390" as="targetPoint" />
          </mxGeometry>
        </mxCell>
        <mxCell id="35FWn0BOx3e-7nPWBhw9-8" value="" style="endArrow=classic;html=1;rounded=0;entryX=0.5;entryY=0;entryDx=0;entryDy=0;exitX=0.5;exitY=1;exitDx=0;exitDy=0;" parent="1" source="35FWn0BOx3e-7nPWBhw9-1" target="35FWn0BOx3e-7nPWBhw9-3" edge="1">
          <mxGeometry width="50" height="50" relative="1" as="geometry">
            <mxPoint x="350" y="1440" as="sourcePoint" />
            <mxPoint x="400" y="1390" as="targetPoint" />
          </mxGeometry>
        </mxCell>
        <mxCell id="35FWn0BOx3e-7nPWBhw9-9" value="" style="endArrow=classic;html=1;rounded=0;exitX=0.5;exitY=1;exitDx=0;exitDy=0;entryX=0.5;entryY=0;entryDx=0;entryDy=0;" parent="1" source="35FWn0BOx3e-7nPWBhw9-1" target="35FWn0BOx3e-7nPWBhw9-4" edge="1">
          <mxGeometry width="50" height="50" relative="1" as="geometry">
            <mxPoint x="350" y="1440" as="sourcePoint" />
            <mxPoint x="400" y="1390" as="targetPoint" />
          </mxGeometry>
        </mxCell>
        <mxCell id="35FWn0BOx3e-7nPWBhw9-10" value="" style="endArrow=classic;html=1;rounded=0;entryX=0.5;entryY=0;entryDx=0;entryDy=0;" parent="1" target="35FWn0BOx3e-7nPWBhw9-5" edge="1">
          <mxGeometry width="50" height="50" relative="1" as="geometry">
            <mxPoint x="370" y="1380" as="sourcePoint" />
            <mxPoint x="400" y="1390" as="targetPoint" />
          </mxGeometry>
        </mxCell>
        <mxCell id="35FWn0BOx3e-7nPWBhw9-11" value="" style="endArrow=classic;html=1;rounded=0;entryX=0.5;entryY=0;entryDx=0;entryDy=0;exitX=0.5;exitY=1;exitDx=0;exitDy=0;" parent="1" source="35FWn0BOx3e-7nPWBhw9-1" target="35FWn0BOx3e-7nPWBhw9-6" edge="1">
          <mxGeometry width="50" height="50" relative="1" as="geometry">
            <mxPoint x="350" y="1440" as="sourcePoint" />
            <mxPoint x="400" y="1390" as="targetPoint" />
          </mxGeometry>
        </mxCell>
        <mxCell id="aELgDBqAeq_lXBg_c4vq-1" value="" style="endArrow=classic;html=1;rounded=0;entryX=0.5;entryY=0;entryDx=0;entryDy=0;" edge="1" parent="1" target="PkiAVml4FqlAzw377sm1-42">
          <mxGeometry width="50" height="50" relative="1" as="geometry">
            <mxPoint x="350" y="950" as="sourcePoint" />
            <mxPoint x="160" y="900" as="targetPoint" />
          </mxGeometry>
        </mxCell>
      </root>
    </mxGraphModel>
  </diagram>
</mxfile>
